<mxfile host="app.diagrams.net" modified="2021-04-19T04:57:56.313Z" agent="5.0 (Macintosh; Intel Mac OS X 10_15_7) AppleWebKit/537.36 (KHTML, like Gecko) Chrome/88.0.4324.192 Safari/537.36" etag="TL9EbfbJOiPWNim6sMfu" version="14.6.1" type="github">
  <diagram id="C6SMAHJB6ap2hFzo_Ulz" name="Page-1">
    <mxGraphModel dx="1497" dy="883" grid="1" gridSize="10" guides="1" tooltips="1" connect="1" arrows="1" fold="1" page="1" pageScale="1" pageWidth="1169" pageHeight="827" math="0" shadow="0">
      <root>
        <mxCell id="0" />
        <mxCell id="1" parent="0" />
        <mxCell id="5ZmH1evjWhEYVLYZDHqn-1" value="" style="ellipse;whiteSpace=wrap;html=1;" vertex="1" parent="1">
          <mxGeometry x="585" y="173" width="290" height="290" as="geometry" />
        </mxCell>
        <mxCell id="5ZmH1evjWhEYVLYZDHqn-3" value="" style="strokeColor=#dddddd;shadow=1;strokeWidth=1;rounded=1;absoluteArcSize=1;arcSize=2;" vertex="1" parent="1">
          <mxGeometry x="400" y="290" width="100" height="56" as="geometry" />
        </mxCell>
        <mxCell id="5ZmH1evjWhEYVLYZDHqn-4" value="Network&#xa;Load&#xa;Balancer" style="dashed=0;connectable=0;html=1;fillColor=#757575;strokeColor=none;shape=mxgraph.gcp2.network_load_balancer;part=1;labelPosition=right;verticalLabelPosition=middle;align=left;verticalAlign=middle;spacingLeft=5;fontSize=12;" vertex="1" parent="5ZmH1evjWhEYVLYZDHqn-3">
          <mxGeometry y="0.5" width="32" height="32" relative="1" as="geometry">
            <mxPoint x="5" y="-16" as="offset" />
          </mxGeometry>
        </mxCell>
        <mxCell id="5ZmH1evjWhEYVLYZDHqn-5" value="I&lt;br&gt;N&lt;br&gt;G&lt;br&gt;R&lt;br&gt;E&lt;br&gt;S&lt;br&gt;S&lt;br&gt;" style="rounded=0;whiteSpace=wrap;html=1;" vertex="1" parent="1">
          <mxGeometry x="610" y="260" width="40" height="130" as="geometry" />
        </mxCell>
        <mxCell id="5ZmH1evjWhEYVLYZDHqn-6" value="Postgres" style="shape=cylinder;whiteSpace=wrap;html=1;boundedLbl=1;backgroundOutline=1;" vertex="1" parent="1">
          <mxGeometry x="1060" y="410" width="60" height="80" as="geometry" />
        </mxCell>
        <mxCell id="5ZmH1evjWhEYVLYZDHqn-7" value="" style="pointerEvents=1;shadow=0;dashed=0;html=1;strokeColor=none;fillColor=#4495D1;labelPosition=center;verticalLabelPosition=bottom;verticalAlign=top;align=center;outlineConnect=0;shape=mxgraph.veeam.laptop;" vertex="1" parent="1">
          <mxGeometry x="130" y="296" width="58.4" height="44" as="geometry" />
        </mxCell>
        <mxCell id="5ZmH1evjWhEYVLYZDHqn-8" value="" style="strokeColor=#dddddd;shadow=1;strokeWidth=1;rounded=1;absoluteArcSize=1;arcSize=2;" vertex="1" parent="1">
          <mxGeometry x="900" y="297" width="100" height="56" as="geometry" />
        </mxCell>
        <mxCell id="5ZmH1evjWhEYVLYZDHqn-9" value="Network&#xa;Load&#xa;Balancer" style="dashed=0;connectable=0;html=1;fillColor=#757575;strokeColor=none;shape=mxgraph.gcp2.network_load_balancer;part=1;labelPosition=right;verticalLabelPosition=middle;align=left;verticalAlign=middle;spacingLeft=5;fontSize=12;" vertex="1" parent="5ZmH1evjWhEYVLYZDHqn-8">
          <mxGeometry y="0.5" width="32" height="32" relative="1" as="geometry">
            <mxPoint x="5" y="-16" as="offset" />
          </mxGeometry>
        </mxCell>
        <mxCell id="5ZmH1evjWhEYVLYZDHqn-10" value="" style="html=1;dashed=0;whitespace=wrap;fillColor=#2875E2;strokeColor=#ffffff;points=[[0.005,0.63,0],[0.1,0.2,0],[0.9,0.2,0],[0.5,0,0],[0.995,0.63,0],[0.72,0.99,0],[0.5,1,0],[0.28,0.99,0]];shape=mxgraph.kubernetes.icon;prIcon=pod" vertex="1" parent="1">
          <mxGeometry x="680" y="210" width="50" height="48" as="geometry" />
        </mxCell>
        <mxCell id="5ZmH1evjWhEYVLYZDHqn-11" value="" style="html=1;dashed=0;whitespace=wrap;fillColor=#2875E2;strokeColor=#ffffff;points=[[0.005,0.63,0],[0.1,0.2,0],[0.9,0.2,0],[0.5,0,0],[0.995,0.63,0],[0.72,0.99,0],[0.5,1,0],[0.28,0.99,0]];shape=mxgraph.kubernetes.icon;prIcon=pod" vertex="1" parent="1">
          <mxGeometry x="730" y="212" width="50" height="48" as="geometry" />
        </mxCell>
        <mxCell id="5ZmH1evjWhEYVLYZDHqn-13" value="" style="shape=image;verticalLabelPosition=bottom;labelBackgroundColor=#ffffff;verticalAlign=top;aspect=fixed;imageAspect=0;image=https://upload.wikimedia.org/wikipedia/commons/thumb/5/54/Apache_ActiveMQ_Logo.svg/1280px-Apache_ActiveMQ_Logo.svg.png;" vertex="1" parent="1">
          <mxGeometry x="780" y="314" width="68.5" height="22" as="geometry" />
        </mxCell>
        <mxCell id="5ZmH1evjWhEYVLYZDHqn-14" value="ABIS" style="rounded=1;whiteSpace=wrap;html=1;" vertex="1" parent="1">
          <mxGeometry x="1040" y="295" width="120" height="60" as="geometry" />
        </mxCell>
        <mxCell id="5ZmH1evjWhEYVLYZDHqn-15" value="" style="html=1;dashed=0;whitespace=wrap;fillColor=#2875E2;strokeColor=#ffffff;points=[[0.005,0.63,0],[0.1,0.2,0],[0.9,0.2,0],[0.5,0,0],[0.995,0.63,0],[0.72,0.99,0],[0.5,1,0],[0.28,0.99,0]];shape=mxgraph.kubernetes.icon;prIcon=pod" vertex="1" parent="1">
          <mxGeometry x="705" y="260" width="50" height="48" as="geometry" />
        </mxCell>
      </root>
    </mxGraphModel>
  </diagram>
</mxfile>
